<svg xmlns="http://www.w3.org/2000/svg" xmlns:xlink="http://www.w3.org/1999/xlink" width="335.004" height="335" enable-background="new 0 0 335.004 335" overflow="visible" viewBox="0 0 335.004 335" xml:space="preserve"><metadata><variableSets xmlns="http://ns.adobe.com/Variables/1.0/"><variableSet locked="none" varSetName="binding1"><variables/><v:sampleDataSets xmlns="http://ns.adobe.com/GenericCustomNamespace/1.0/" xmlns:v="http://ns.adobe.com/Variables/1.0/"/></variableSet></variableSets><sfw xmlns="http://ns.adobe.com/SaveForWeb/1.0/"><slices/><sliceSourceBounds width="335.004" height="335" x="138" y="228" bottomLeftOrigin="true"/></sfw></metadata><switch><g><g id="Layer_5"><g><path fill="none" d="M335.004,335H0V0h335.004V335z"/><g><path fill="#BEAA2F" stroke="#000" stroke-width=".75" d="M196.042,12.539c0,0,22.63-7.851,34.979-4.692 c10.713,2.741,5.321,79.131,4.047,99.562c-0.228,3.607,21.555,48.558,21.555,48.558s0.452,0.572,0.33,0.938 c-0.976,2.902-6.146,14.244-7.212,16.336c-0.799,1.572-6.37,116.918-6.37,116.918l-78.088,42.127l58.848-313.815 L196.042,12.539z"/><path fill="none" stroke="#000" d="M229.401,13.751" opacity=".53"/><path fill="#5F4711" d="M169.564,315.422l0.167,14.145l73.391-39.5l-1.048-11.172L169.564,315.422z"/><path fill="#FFDD3F" stroke="#000" stroke-width=".75" d="M171.363,192.009l76.562-22.768 l-6.283,109.562l-71.993,37.004L168.3,199.319C168.3,199.319,170.406,194.794,171.363,192.009z"/><path fill="#424242" d="M194.468,205.099l32.538-9.039l-1.013,44.059l-31.621,11.717l-1.173-43.961 C193.2,207.874,194.074,206.153,194.468,205.099z"/><path fill="#FFDD3F" stroke="#000" stroke-width=".75" d="M144.355,12.23c0,0,27.332,0.077,50.854,0.642 c16.402,0.398,30.948,1.034,33.082,2.042l-0.818,38.25l-81.965,7.375C145.507,60.538,146.486,12.012,144.355,12.23z"/><path fill="#4B4312" stroke="#000" stroke-linejoin="round" stroke-width=".5" d="M146.345,60.205 l81.961-7.382l3.961,55.311c0,0,14.854,36.375,23.104,49.405l-7.606,14.52l-76.396,19.816l0.78-16.311l77.542-20.676 l-21.105-18.376L171.75,81.515l-24.33,2.471L146.345,60.205"/><path fill="#525252" stroke="#000" stroke-linejoin="round" stroke-width=".75" d="M151.542,129.264 c-4.4-15.803-3.804-35.274-4.124-45.358l23.544-2.392l59.457,57.275l-69.295,16.3 C161.124,155.09,155.511,143.515,151.542,129.264z"/><linearGradient id="XMLID_1_" x1="100.449" x2="254.541" y1="88.058" y2="158.655" gradientUnits="userSpaceOnUse"><stop offset="0" style="stop-color:#000"/><stop offset=".139" style="stop-color:#040404"/><stop offset=".266" style="stop-color:#0f0f0f"/><stop offset=".389" style="stop-color:#212121"/><stop offset=".509" style="stop-color:#3c3c3c"/><stop offset=".627" style="stop-color:#5d5d5d"/><stop offset=".744" style="stop-color:#878787"/><stop offset=".86" style="stop-color:#b8b8b8"/><stop offset=".971" style="stop-color:#f0f0f0"/><stop offset="1" style="stop-color:#fff"/></linearGradient><path fill="url(#XMLID_1_)" stroke="#000" stroke-width=".5" d="M147.707,90.088 l22.95-2.989l46.757,47.513l-59.079,13.09C158.334,147.702,146.492,121.415,147.707,90.088" opacity=".99"/><g><g><path fill="#5E007F" d="M185.009,29.802c-1.544,0.046-2.75,0.546-3.624,1.501 c-0.901,1.002-1.329,2.38-1.28,4.125c0.05,1.74,0.552,3.083,1.509,4.025c0.962,0.934,2.258,1.352,3.895,1.262 c1.64-0.089,2.91-0.636,3.814-1.634c0.898-0.989,1.325-2.311,1.276-3.972c-0.047-1.665-0.55-2.964-1.508-3.902 c-0.954-0.946-2.255-1.416-3.895-1.406C185.133,29.802,185.072,29.8,185.009,29.802z M185.178,31.769 c0.026-0.001,0.051,0,0.074-0.001c0.808-0.011,1.438,0.283,1.899,0.88c0.461,0.597,0.707,1.445,0.737,2.542 c0.031,1.092-0.167,1.945-0.592,2.567c-0.424,0.625-1.038,0.959-1.846,0.995c-0.802,0.039-1.431-0.243-1.89-0.838 c-0.46-0.597-0.707-1.453-0.738-2.57c-0.032-1.121,0.165-1.999,0.591-2.624C183.828,32.115,184.414,31.798,185.178,31.769z"/><path fill="#5E007F" d="M167.835,40.65c-1.33,1.155-3.356,1.261-4.2,1.311 c-1.699,0.101-3.059-0.361-4.079-1.393c-1.021-1.047-1.555-2.513-1.604-4.395c-0.048-1.904,0.42-3.413,1.401-4.521 c0.985-1.098,2.356-1.656,4.114-1.673c0.68-0.008,1.328,0.058,1.953,0.195c0.627,0.136,1.222,0.34,1.778,0.614l-0.656,1.991 c-0.313-0.156-0.673-0.306-1.004-0.412c-0.565-0.167-1.13-0.247-1.694-0.236c-1.048,0.021-1.849,0.371-2.4,1.054 c-0.546,0.68-0.805,1.645-0.771,2.892c0.029,1.236,0.327,2.179,0.891,2.824c0.563,0.644,1.396,0.936,2.355,0.887 c0.979-0.048,1.577-0.313,1.893-0.575l-0.05-1.978l-2.118,0.085l-0.052-1.995l4.101-0.13"/><path fill="#5E007F" d="M169.357,30.125l1.659-0.018l5.425,6.53l-0.18-6.578l2.238-0.019l0.3,10.835 l-1.66,0.092l-5.424-6.41l0.181,6.703l-2.239,0.128L169.357,30.125"/><path fill="#5E007F" d="M192.178,29.947l3.346-0.018l2.513,6.19l2.147-6.209l2.831-0.011l1.575,9.621 l-2.484,0.126l-0.955-6.072l-2.162,6.259l-1.667,0.086l-2.547-6.42l-0.573,6.552l-2.493,0.13l0.979-10.236"/><path fill="#5E007F" d="M206.088,29.89l7.1-0.013l0.056,1.796l-4.467,0.049l0.062,1.955l3.436-0.071 l0.052,1.607l-3.434,0.099l0.068,2.156l4.618-0.182l0.059,1.791l-7.249,0.354L206.088,29.89"/><g><path fill="#5E007F" d="M216.333,29.811l-0.05-1.492l-0.741-0.005l-0.007-0.202l1.78,0.015l0.007,0.2 l-0.742-0.005l0.05,1.489H216.333z"/><path fill="#5E007F" d="M217.676,29.81l-0.056-1.68l0.444,0.003l0.571,1.189 c0.053,0.11,0.092,0.193,0.116,0.248c0.023-0.061,0.061-0.15,0.11-0.268l0.502-1.157l0.396,0.003l0.056,1.662h-0.284 l-0.047-1.393l-0.606,1.393h-0.269l-0.696-1.429l0.048,1.429L217.676,29.81z"/></g></g></g><g id="Layer_4_2_"><path fill="#878787" d="M161.514,154.383l69.297-16.113l18.881,16.077 c0,0-75.783,19.979-77.586,20.43C170.73,175.123,160.5,155.735,161.514,154.383z" opacity=".99"/></g><g id="Layer_4_1_"><path fill="#878787" d="M162.656,154.378l68.311-16.113l18.613,16.077 c0,0-74.706,19.98-76.483,20.431C171.741,175.117,161.657,155.73,162.656,154.378z" opacity=".99"/></g><g><linearGradient id="XMLID_2_" x1="198.629" x2="204.486" y1="156.341" y2="159.024" gradientUnits="userSpaceOnUse"><stop offset="0" style="stop-color:#000"/><stop offset=".139" style="stop-color:#040404"/><stop offset=".266" style="stop-color:#0f0f0f"/><stop offset=".389" style="stop-color:#212121"/><stop offset=".509" style="stop-color:#3c3c3c"/><stop offset=".627" style="stop-color:#5d5d5d"/><stop offset=".744" style="stop-color:#878787"/><stop offset=".86" style="stop-color:#b8b8b8"/><stop offset=".971" style="stop-color:#f0f0f0"/><stop offset="1" style="stop-color:#fff"/></linearGradient><path fill="url(#XMLID_2_)" d="M201.204,154.72l2.089,0.525l-1.328,5.289 c0,0-0.742,0.143-1.178,0.025c-0.44-0.115-0.79-0.52-0.79-0.52L201.204,154.72z" opacity=".99"/><radialGradient id="XMLID_3_" cx="215.652" cy="160.57" r="22.928" fx="215.652" fy="160.57" gradientUnits="userSpaceOnUse"><stop offset="0" style="stop-color:#fff"/><stop offset=".09" style="stop-color:#f7dfe0"/><stop offset=".273" style="stop-color:#e9a3a7"/><stop offset=".45" style="stop-color:#dd7177"/><stop offset=".616" style="stop-color:#d34b52"/><stop offset=".767" style="stop-color:#cd2f37"/><stop offset=".9" style="stop-color:#c81e27"/><stop offset="1" style="stop-color:#c71821"/></radialGradient><path fill="url(#XMLID_3_)" d="M205.507,154.785c0,1.746-1.412,3.158-3.158,3.158s-3.158-1.412-3.158-3.158 s1.412-3.158,3.158-3.158S205.507,153.039,205.507,154.785z"/></g><path fill="#BEAA2F" stroke="#000" stroke-width=".75" d="M77.301,29.194 c0,0,9.509-10.296,24.196-16.406c12.935-5.379,28.513-10.29,38.756-9.892c9.27,0.366,4.279,43.577,6.62,74.06 c1.083,14.115,0.517,26.169,1.323,30.04c0,0,1.256,13.306,5.777,28.224c5.473,18.036,14.631,38.392,17.938,40.048 c3.628,1.816,1.517,9.91-0.744,16.066c-1.491,4.074-3.051,7.311-3.051,7.311l1.505,130.834l-4.525,2.266L91.141,271.24 L77.301,29.194z"/><g id="g15043"><g><g><path fill="#5E006F" d="M130.154,47.508c-11.878,2.177-13.826,17.403-7.144,16.914 C129.691,63.929,142.032,45.295,130.154,47.508z"/><path fill="#5E006F" d="M110.676,63.543c3.562-0.111,7.237-12.685,0.565-10.791 C104.572,54.557,107.114,63.668,110.676,63.543z"/><path fill="#5E006F" d="M94.513,71.196c2.513-0.902,0.128-8.858-4.127-6.316 C86.14,67.261,92.003,72.06,94.513,71.196z"/><path fill="#5E006F" d="M101.548,66.551c3.004-0.683,2.962-10.585-2.372-8.097 C93.839,60.784,98.551,67.212,101.548,66.551z"/><path fill="#5E006F" d="M117.737,90.045c0.6,3.71-2.895,4.974-6.396,2.204 c-11.137-8.016,18.008-9.663,15.893-20.642c-1.755-8.869-30.849-4.324-33.92,6.691 c-2.083,7.112,9.641,19.362,21.635,21.656c5.898,1.118,12.616-2.693,13.778-8.987 C129.611,86.097,117.233,86.978,117.737,90.045z"/></g></g></g></g></g></g></g></switch></svg>